<svg width="24" height="24" viewBox="0 0 24 24" fill="none" xmlns="http://www.w3.org/2000/svg">
<path d="M13 2V5H11V2H13ZM22 11V13H19V11H22ZM5 11V13H2V11H5ZM6 4.1L8.1 6.2L6.7 7.6L4.6 5.5L6 4.1ZM18 4.1L19.4 5.5L17.3 7.6L15.9 6.2L18 4.1ZM12 7C13.3833 7 14.5625 7.4875 15.5375 8.4625C16.5125 9.4375 17 10.6167 17 12C17 12.8 16.8208 13.5458 16.4625 14.2375C16.1042 14.9292 15.6167 15.5167 15 16V21H9V16C8.38333 15.5167 7.89583 14.9292 7.5375 14.2375C7.17917 13.5458 7 12.8 7 12C7 10.6167 7.4875 9.4375 8.4625 8.4625C9.4375 7.4875 10.6167 7 12 7ZM13 16.9C12.8333 16.9333 12.6667 16.9583 12.5 16.975C12.3333 16.9917 12.1667 17 12 17C11.8333 17 11.6667 16.9917 11.5 16.975C11.3333 16.9583 11.1667 16.9333 11 16.9V19H13V16.9ZM12 9C11.1667 9 10.4583 9.29167 9.875 9.875C9.29167 10.4583 9 11.1667 9 12C9 12.8333 9.29167 13.5417 9.875 14.125C10.4583 14.7083 11.1667 15 12 15C12.8333 15 13.5417 14.7083 14.125 14.125C14.7083 13.5417 15 12.8333 15 12C15 11.1667 14.7083 10.4583 14.125 9.875C13.5417 9.29167 12.8333 9 12 9Z" fill="white"/>
</svg>
